<svg width="1580" height="518" version="1.1" xmlns="http://www.w3.org/2000/svg" desc="Created with imagetracer.js version 1.2.6" ><path fill="rgb(0,0,0)" stroke="rgb(0,0,0)" stroke-width="1" opacity="0" d="M 0 0 L 1579.5 0 L 1580 0.5 L 1580 518 L 0.5 518 L 0 517.5 L 0 0 Z M 468 51 L 467 52 L 452 53 L 431 58 Q 401 67 376 81 Q 324 109 282 147 Q 237 187 204 239 L 311 239 Q 325 216 343 198 Q 374 165 414 140 L 452 123 L 473 117 L 483 115 L 490 115 L 491 114 L 506 114 L 517 116 L 527 120 L 535 126 L 545 142 L 549 157 L 549 175 L 545 194 Q 538 215 527 233 L 528 234 Q 541 215 550 192 L 559 163 L 563 141 L 563 134 L 564 133 L 564 120 L 563 119 L 563 111 L 561 102 Q 557 87 548 77 Q 536 61 516 55 L 501 52 L 493 52 L 492 51 L 468 51 Z M 1023 51 L 1022 52 L 1014 52 L 1013 53 L 1002 54 L 979 61 Q 959 69 945 81 Q 926 96 915 118 L 907 138 L 903 158 L 903 189 L 908 212 Q 916 236 931 253 Q 949 272 975 284 L 1000 292 L 1018 294 L 1019 295 L 1051 295 L 1079 290 Q 1106 283 1125 267 Q 1142 254 1151 233 L 1115 213 L 1108 224 Q 1097 238 1079 246 L 1063 251 L 1052 253 L 1041 253 L 1040 254 L 1020 253 L 1006 250 Q 988 244 975 234 Q 953 218 947 187 L 947 161 L 949 151 Q 954 135 963 124 Q 973 112 987 104 L 1004 97 L 1024 93 L 1047 93 L 1063 96 Q 1082 101 1095 113 Q 1106 123 1113 136 Q 1134 129 1152 119 Q 1144 103 1132 91 Q 1113 70 1085 59 L 1057 52 L 1049 52 L 1048 51 L 1023 51 Z M 676 54 L 676 290 L 876 290 L 876 250 L 876 249 L 719 249 L 719 191 L 848 191 L 848 150 L 848 149 L 719 149 L 719 112 L 706 97 L 706 95 L 869 95 L 869 95 L 869 56 L 868 54 L 676 54 Z M 1178 54 L 1178 290 L 1378 290 L 1378 250 L 1378 249 L 1221 249 L 1221 191 L 1350 191 L 1350 150 L 1350 149 L 1221 149 L 1221 112 L 1207 96 L 1371 95 L 1371 55 L 1371 54 L 1178 54 Z M 527 234 L 525 237 L 527 236 L 527 234 Z M 293 272 L 291 275 L 293 274 L 293 272 Z M 507 272 Q 493 294 475 313 Q 444 346 404 371 Q 380 384 353 392 L 324 397 L 315 397 L 314 396 L 302 395 L 286 387 Q 272 376 268 355 L 268 337 L 272 318 Q 279 294 291 277 L 291 275 L 281 290 L 264 327 L 257 352 L 254 368 L 254 375 L 253 376 L 253 395 L 254 396 L 255 407 Q 259 421 267 432 Q 276 443 289 450 L 304 456 L 321 459 L 355 459 L 356 458 L 368 457 L 389 452 L 421 440 Q 489 407 542 358 Q 582 321 612 274 L 612 272 L 507 272 Z M 692 325 L 688 335 Q 687 337 694 336 L 701 326 L 692 325 Z M 1111 325 L 1107 335 Q 1106 337 1113 336 L 1120 326 L 1111 325 Z M 733 340 L 725 343 L 720 348 L 717 357 Q 715 375 721 386 L 730 391 Q 740 393 745 389 Q 751 385 752 376 L 744 376 L 744 379 L 738 384 Q 731 385 728 382 L 725 376 L 725 356 L 727 352 L 732 348 Q 739 347 742 350 L 744 354 L 744 356 L 752 356 L 749 347 Q 744 340 733 340 Z M 777 340 L 768 344 L 762 354 L 762 379 L 764 384 L 774 391 Q 785 393 791 388 L 795 383 L 797 376 L 797 356 L 794 348 Q 789 340 777 340 Z M 1063 340 L 1052 345 L 1048 354 L 1048 379 L 1050 384 Q 1053 389 1061 391 Q 1070 392 1076 389 Q 1081 386 1083 379 L 1083 364 L 1065 364 L 1065 370 L 1075 370 L 1076 372 L 1074 380 L 1068 384 L 1061 383 L 1056 378 L 1056 355 L 1057 353 Q 1059 346 1070 348 L 1075 355 L 1076 356 L 1083 356 L 1081 349 Q 1077 339 1063 340 Z M 1358 340 L 1349 344 L 1344 352 Q 1343 360 1346 364 L 1353 368 L 1368 371 L 1370 376 L 1369 381 L 1364 384 Q 1351 386 1348 379 L 1343 384 L 1343 386 L 1353 391 L 1367 391 L 1371 389 Q 1377 386 1378 378 L 1377 371 L 1375 368 L 1369 363 L 1356 361 L 1352 358 L 1353 351 L 1356 348 L 1360 347 Q 1367 347 1371 351 L 1376 347 Q 1371 339 1358 340 Z M 676 341 L 676 390 L 678 391 L 708 391 L 708 391 L 708 384 L 686 384 L 684 383 L 684 369 L 704 369 L 704 362 L 684 362 L 684 348 L 708 348 L 708 342 L 708 341 L 676 341 Z M 809 341 L 809 391 L 840 391 L 840 385 L 840 384 L 817 384 L 817 342 L 817 341 L 809 341 Z M 850 341 L 850 391 L 881 391 L 881 391 L 881 384 L 859 384 L 857 383 L 857 369 L 877 369 L 877 362 L 857 362 L 857 348 L 881 348 L 881 342 L 881 341 L 850 341 Z M 910 341 L 910 391 L 932 391 L 939 388 Q 944 384 945 377 L 945 355 L 942 348 Q 939 343 933 341 L 910 341 Z M 956 341 L 957 355 L 964 349 L 964 341 L 956 341 Z M 977 341 L 977 391 L 978 391 L 985 391 L 985 342 L 985 341 L 977 341 Z M 999 341 L 999 391 L 1006 391 L 1007 390 L 1007 360 L 1006 359 L 1008 358 L 1027 390 L 1029 391 L 1036 391 L 1036 342 L 1036 341 L 1028 341 L 1028 374 L 1008 344 Q 1006 339 999 341 Z M 1095 341 L 1095 391 L 1126 391 Q 1129 389 1127 384 L 1105 384 L 1103 383 L 1103 369 L 1123 369 L 1123 362 L 1103 362 L 1103 348 L 1127 348 L 1127 342 L 1127 341 L 1095 341 Z M 1138 341 L 1138 391 L 1139 391 L 1146 391 L 1147 358 L 1167 390 L 1168 391 L 1175 391 L 1175 342 L 1175 341 L 1167 341 L 1167 374 L 1146 343 L 1146 341 L 1138 341 Z M 1189 341 L 1189 391 L 1190 391 L 1196 391 L 1196 342 L 1196 341 L 1189 341 Z M 1210 341 L 1210 391 L 1242 391 L 1242 391 L 1242 384 L 1220 384 L 1218 383 L 1218 369 L 1238 369 L 1238 362 L 1218 362 L 1218 348 L 1242 348 L 1242 342 L 1242 341 L 1210 341 Z M 1252 341 L 1252 378 L 1255 385 L 1265 391 Q 1275 393 1280 389 L 1286 383 L 1288 376 L 1288 342 L 1288 341 L 1280 341 L 1280 375 L 1279 379 L 1273 384 L 1265 383 L 1260 376 L 1260 342 L 1260 341 L 1252 341 Z M 1300 341 L 1300 390 L 1302 391 Q 1307 392 1309 390 L 1309 370 L 1317 370 L 1327 390 L 1328 391 L 1336 391 L 1326 371 L 1326 368 L 1330 367 Q 1334 364 1335 359 Q 1336 351 1333 348 L 1325 341 L 1300 341 Z M 678 408 L 676 410 L 676 458 L 678 459 L 709 459 L 709 451 L 685 451 L 685 437 L 705 437 L 705 430 L 685 430 L 685 416 L 709 416 L 709 409 L 709 408 L 678 408 Z M 717 408 L 717 459 L 725 459 L 725 459 L 725 428 L 727 427 L 747 459 L 755 459 L 755 459 L 755 408 L 748 408 L 747 409 L 747 441 L 745 441 L 726 411 Q 724 406 717 408 Z M 778 408 L 772 411 Q 766 415 764 423 L 764 445 L 766 451 L 777 459 Q 787 461 793 457 L 800 448 L 801 433 L 800 431 L 782 431 L 782 439 L 793 439 L 791 448 L 784 452 L 778 451 L 773 447 L 772 443 L 772 426 L 774 420 L 779 416 L 787 416 L 790 418 L 792 424 L 801 424 L 797 415 L 787 408 L 778 408 Z M 810 408 L 810 459 L 818 459 L 818 459 L 818 410 Q 816 406 810 408 Z M 829 408 L 829 459 L 830 459 L 837 459 L 838 426 L 858 458 Q 859 461 866 459 L 867 458 L 867 410 Q 866 406 860 408 L 858 410 L 858 441 L 837 410 L 836 408 L 829 408 Z M 879 408 L 877 410 L 877 458 L 879 459 L 910 459 Q 911 459 910 453 L 909 451 L 886 451 L 886 437 L 906 437 L 906 430 L 886 430 L 886 416 L 910 416 Q 911 416 910 410 L 909 408 L 879 408 Z M 918 408 L 918 459 L 950 459 L 950 451 L 926 451 L 926 437 L 947 437 L 947 430 L 926 430 L 926 416 L 950 416 L 950 409 L 950 408 L 918 408 Z M 959 408 L 959 459 L 967 459 L 967 438 L 976 438 L 985 458 L 987 459 L 995 459 L 984 438 L 989 435 Q 993 432 994 427 Q 995 419 992 416 L 987 410 L 980 408 L 959 408 Z M 1003 408 L 1003 459 L 1011 459 L 1011 459 L 1011 410 Q 1009 406 1003 408 Z M 1022 408 L 1022 459 L 1023 459 L 1030 459 L 1031 426 L 1051 458 L 1053 459 L 1060 459 L 1060 410 L 1059 408 Q 1052 407 1052 409 L 1052 441 L 1050 441 L 1030 410 Q 1028 406 1022 408 Z M 1083 408 L 1075 412 L 1069 422 L 1069 446 L 1072 453 L 1082 459 Q 1093 461 1099 456 Q 1103 453 1105 447 L 1106 433 L 1105 431 L 1087 431 L 1087 439 L 1097 439 Q 1098 446 1095 449 L 1089 452 L 1080 450 L 1077 444 L 1077 425 L 1078 421 L 1084 416 L 1093 417 L 1097 423 L 1098 424 L 1105 424 L 1103 417 Q 1098 407 1083 408 Z M 1139 408 L 1134 410 L 1127 419 Q 1126 428 1129 432 L 1135 436 L 1151 439 L 1153 443 L 1152 449 L 1146 452 L 1141 452 L 1133 449 L 1131 447 L 1125 453 Q 1129 457 1136 459 L 1150 459 L 1156 456 L 1161 449 Q 1163 440 1159 436 L 1153 431 L 1138 428 L 1135 425 L 1136 419 L 1140 416 Q 1150 414 1155 419 L 1159 414 Q 1153 406 1139 408 Z M 1182 408 L 1175 411 L 1168 420 Q 1170 426 1167 428 L 1167 441 Q 1170 442 1168 448 L 1170 452 L 1180 459 Q 1190 461 1196 457 Q 1202 453 1204 445 L 1203 443 L 1195 443 L 1194 448 L 1187 452 L 1180 450 L 1176 445 L 1176 423 L 1178 418 L 1182 416 L 1191 417 L 1195 423 L 1196 424 L 1204 424 L 1201 416 Q 1196 407 1182 408 Z M 1212 408 L 1212 459 L 1220 459 L 1220 437 L 1239 437 L 1239 459 L 1247 459 L 1247 459 L 1247 408 L 1239 408 L 1239 430 L 1220 430 L 1220 410 Q 1218 406 1212 408 Z M 1271 408 L 1264 411 L 1259 416 L 1256 426 L 1256 442 L 1258 451 L 1269 459 Q 1279 461 1285 457 L 1291 451 L 1293 444 L 1293 424 L 1290 416 Q 1285 407 1271 408 Z M 1314 408 L 1304 413 L 1300 422 L 1300 446 L 1303 453 L 1313 459 Q 1324 461 1330 456 Q 1334 453 1336 447 L 1336 421 L 1333 415 L 1323 408 L 1314 408 Z M 1345 408 L 1345 459 L 1377 459 L 1378 458 Q 1379 452 1377 451 L 1354 451 L 1354 410 L 1353 408 L 1345 408 Z " /><path fill="rgb(0,0,0)" stroke="rgb(0,0,0)" stroke-width="1" opacity="0" d="M 775.5 348 Q 785.6 346.4 788 352.5 L 789 355.5 L 789 375.5 L 785.5 382 Q 782.8 384.8 776.5 384 L 771 379.5 L 769 371.5 L 769 360.5 Q 771.5 359 770 353.5 L 772 350 L 775.5 348 Z " /><path fill="rgb(0,0,0)" stroke="rgb(0,0,0)" stroke-width="1" opacity="0" d="M 918 348 L 929.5 348 L 936 352.5 L 937 355.5 L 937 376.5 L 931.5 383 L 919.5 384 L 918 382.5 L 918 348 Z " /><path fill="rgb(0,0,0)" stroke="rgb(0,0,0)" stroke-width="1" opacity="0" d="M 1309 348 L 1321.5 348 L 1326 351.5 L 1327 357.5 L 1323.5 362 L 1321.5 363 L 1309 363 L 1309 348 Z " /><path fill="rgb(0,0,0)" stroke="rgb(0,0,0)" stroke-width="1" opacity="0" d="M 967 416 L 979.5 416 L 985 419.5 L 986 425.5 L 983.5 429 L 979.5 431 L 967 431 L 967 416 Z " /><path fill="rgb(0,0,0)" stroke="rgb(0,0,0)" stroke-width="1" opacity="0" d="M 1270.5 416 Q 1280.6 414.4 1283 420.5 L 1285 436.5 L 1284 437.5 L 1284 445.5 L 1280.5 450 L 1273.5 452 L 1267 448.5 L 1265 444.5 L 1265 422.5 L 1270.5 416 Z " /><path fill="rgb(0,0,0)" stroke="rgb(0,0,0)" stroke-width="1" opacity="0" d="M 1314.5 416 Q 1323.5 414.5 1326 419.5 L 1328 424.5 L 1328 443.5 L 1322.5 451 L 1316.5 452 L 1310 447.5 Q 1306 439.5 1308 425.5 L 1310 419.5 L 1312.5 417 L 1314.5 416 Z " /><path fill="rgb(26,34,33)" stroke="rgb(26,34,33)" stroke-width="1" opacity="0.9254901960784314" d="M 868.5 55 L 869 94.5 L 868 94.5 L 868.5 55 Z " /><path fill="rgb(26,34,33)" stroke="rgb(26,34,33)" stroke-width="1" opacity="0.9254901960784314" d="M 718.5 111 L 719 148.5 L 718 148.5 L 718.5 111 Z " /><path fill="rgb(26,34,33)" stroke="rgb(26,34,33)" stroke-width="1" opacity="0.9254901960784314" d="M 946.5 164 L 947 181.5 L 946 181.5 L 946.5 164 Z " /><path fill="rgb(26,34,33)" stroke="rgb(26,34,33)" stroke-width="1" opacity="0.9254901960784314" d="M 718.5 191 L 719 248.5 L 718 248.5 L 718.5 191 Z " /><path fill="rgb(26,34,33)" stroke="rgb(26,34,33)" stroke-width="1" opacity="0.9254901960784314" d="M 875.5 249 L 876 289.5 L 875 289.5 L 875.5 249 Z " /><path fill="rgb(26,34,33)" stroke="rgb(26,34,33)" stroke-width="1" opacity="0.9254901960784314" d="M 692 325 L 701 325.5 L 693.5 336 Q 687.4 337.3 688 334.5 L 692 325 Z " /><path fill="rgb(26,34,33)" stroke="rgb(26,34,33)" stroke-width="1" opacity="0.9254901960784314" d="M 1111 325 L 1120 325.5 L 1112.5 336 Q 1106.4 337.3 1107 334.5 L 1111 325 Z " /><path fill="rgb(26,34,33)" stroke="rgb(26,34,33)" stroke-width="1" opacity="0.9254901960784314" d="M 732.5 340 Q 744.5 339.5 749 346.5 L 752 356 L 744 356 L 744 353.5 L 741.5 350 Q 738.9 346.6 731.5 348 L 727 351.5 L 725 355.5 L 725 375.5 L 728 382 Q 730.6 384.7 737.5 384 L 744 378.5 L 744 376 L 752 376 Q 751.4 385.1 744.5 389 Q 739.8 392.8 729.5 391 L 721 385.5 Q 714.6 375.4 717 356.5 L 720 347.5 L 724.5 343 L 732.5 340 Z " /><path fill="rgb(26,34,33)" stroke="rgb(26,34,33)" stroke-width="1" opacity="0.9254901960784314" d="M 776.5 340 Q 789.4 339.6 794 347.5 L 797 355.5 L 797 375.5 L 795 382.5 L 790.5 388 Q 785.3 392.8 773.5 391 L 764 383.5 L 762 378.5 L 762 353.5 L 767.5 344 L 776.5 340 Z M 776 348 L 772 350 L 770 354 Q 772 359 769 361 L 769 372 L 771 380 L 777 384 Q 783 385 786 382 L 789 376 L 789 356 L 788 353 Q 786 346 776 348 Z " /><path fill="rgb(26,34,33)" stroke="rgb(26,34,33)" stroke-width="1" opacity="0.9254901960784314" d="M 1062.5 340 Q 1076.6 339.4 1081 348.5 L 1083 356 L 1075.5 356 L 1075 354.5 L 1069.5 348 Q 1059.4 346.4 1057 352.5 L 1056 354.5 L 1056 377.5 L 1060.5 383 L 1067.5 384 L 1074 379.5 L 1076 371.5 L 1074.5 370 L 1065 370 L 1065 364 L 1083 364 L 1083 378.5 Q 1081.2 385.7 1075.5 389 Q 1070.4 392.4 1060.5 391 Q 1053.3 389.2 1050 383.5 L 1048 378.5 L 1048 353.5 L 1052 345 L 1062.5 340 Z " /><path fill="rgb(26,34,33)" stroke="rgb(26,34,33)" stroke-width="1" opacity="0.9254901960784314" d="M 1357.5 340 Q 1370.7 339.3 1376 346.5 L 1370.5 351 Q 1366.7 347.3 1359.5 347 L 1355.5 348 L 1353 350.5 L 1352 357.5 L 1355.5 361 L 1368.5 363 L 1375 367.5 L 1377 370.5 L 1378 377.5 Q 1376.6 385.6 1370.5 389 L 1366.5 391 L 1352.5 391 L 1343 385.5 L 1343 383.5 L 1347.5 379 Q 1351.5 385.5 1363.5 384 L 1369 380.5 L 1370 375.5 L 1368 371 L 1352.5 368 L 1346 363.5 Q 1343 359.5 1344 351.5 L 1348.5 344 L 1357.5 340 Z " /><path fill="rgb(26,34,33)" stroke="rgb(26,34,33)" stroke-width="1" opacity="0.9254901960784314" d="M 676 341 L 707.5 341 L 708 341.5 L 708 348 L 684 348 L 684 362 L 704 362 L 704 369 L 684 369 L 684 382.5 L 685.5 384 L 708 384 L 708 390.5 L 707.5 391 L 677.5 391 L 676 389.5 L 676 341 Z " /><path fill="rgb(26,34,33)" stroke="rgb(26,34,33)" stroke-width="1" opacity="0.9254901960784314" d="M 809 341 L 816.5 341 L 817 341.5 L 817 384 L 839.5 384 L 840 384.5 L 840 391 L 809 391 L 809 341 Z " /><path fill="rgb(26,34,33)" stroke="rgb(26,34,33)" stroke-width="1" opacity="0.9254901960784314" d="M 850 341 L 880.5 341 L 881 341.5 L 881 348 L 857 348 L 857 362 L 877 362 L 877 369 L 857 369 L 857 382.5 L 858.5 384 L 881 384 L 881 390.5 L 880.5 391 L 850 391 L 850 341 Z " /><path fill="rgb(26,34,33)" stroke="rgb(26,34,33)" stroke-width="1" opacity="0.9254901960784314" d="M 910 341 L 932.5 341 Q 939 342.5 942 347.5 L 945 354.5 L 945 376.5 Q 943.8 384.3 938.5 388 L 931.5 391 L 910 391 L 910 341 Z M 918 348 L 918 383 L 920 384 L 932 383 L 937 377 L 937 356 L 936 353 L 930 348 L 918 348 Z " /><path fill="rgb(26,34,33)" stroke="rgb(26,34,33)" stroke-width="1" opacity="0.9254901960784314" d="M 956 341 L 964 341 L 964 348.5 L 956.5 355 L 956 341 Z " /><path fill="rgb(26,34,33)" stroke="rgb(26,34,33)" stroke-width="1" opacity="0.9254901960784314" d="M 977 341 L 984.5 341 L 985 341.5 L 985 391 L 977.5 391 L 977 390.5 L 977 341 Z " /><path fill="rgb(26,34,33)" stroke="rgb(26,34,33)" stroke-width="1" opacity="0.9254901960784314" d="M 999 341 Q 1006.1 339.3 1008 343.5 L 1027.5 374 L 1028 341 L 1035.5 341 L 1036 341.5 L 1036 391 L 1028.5 391 L 1027 389.5 L 1008 358 L 1006 358.5 L 1007 359.5 L 1007 389.5 L 1005.5 391 L 999 391 L 999 341 Z " /><path fill="rgb(26,34,33)" stroke="rgb(26,34,33)" stroke-width="1" opacity="0.9254901960784314" d="M 1095 341 L 1126.5 341 L 1127 341.5 L 1127 348 L 1103 348 L 1103 362 L 1123 362 L 1123 369 L 1103 369 L 1103 382.5 L 1104.5 384 L 1127 384 Q 1128.5 389.4 1125.5 391 L 1095 391 L 1095 341 Z " /><path fill="rgb(26,34,33)" stroke="rgb(26,34,33)" stroke-width="1" opacity="0.9254901960784314" d="M 1138 341 L 1145.5 341 L 1146 342.5 L 1166.5 374 L 1167 341 L 1174.5 341 L 1175 341.5 L 1175 391 L 1167.5 391 L 1167 389.5 L 1146.5 358 L 1146 391 L 1138.5 391 L 1138 390.5 L 1138 341 Z " /><path fill="rgb(26,34,33)" stroke="rgb(26,34,33)" stroke-width="1" opacity="0.9254901960784314" d="M 1189 341 L 1195.5 341 L 1196 341.5 L 1196 391 L 1189.5 391 L 1189 390.5 L 1189 341 Z " /><path fill="rgb(26,34,33)" stroke="rgb(26,34,33)" stroke-width="1" opacity="0.9254901960784314" d="M 1210 341 L 1241.5 341 L 1242 341.5 L 1242 348 L 1218 348 L 1218 362 L 1238 362 L 1238 369 L 1218 369 L 1218 382.5 L 1219.5 384 L 1242 384 L 1242 390.5 L 1241.5 391 L 1210 391 L 1210 341 Z " /><path fill="rgb(26,34,33)" stroke="rgb(26,34,33)" stroke-width="1" opacity="0.9254901960784314" d="M 1252 341 L 1259.5 341 L 1260 341.5 L 1260 375.5 L 1264.5 383 L 1272.5 384 L 1279 378.5 L 1280 374.5 L 1280 341 L 1287.5 341 L 1288 341.5 L 1288 375.5 L 1286 382.5 L 1279.5 389 Q 1274.8 392.8 1264.5 391 L 1255 384.5 L 1252 377.5 L 1252 341 Z " /><path fill="rgb(26,34,33)" stroke="rgb(26,34,33)" stroke-width="1" opacity="0.9254901960784314" d="M 1300 341 L 1324.5 341 L 1333 347.5 Q 1335.9 351.1 1335 358.5 Q 1333.8 364.3 1329.5 367 L 1326 368 L 1326 370.5 L 1336 391 L 1327.5 391 L 1327 389.5 L 1316.5 370 L 1309 370 L 1309 389.5 Q 1307.5 392.5 1301.5 391 L 1300 389.5 L 1300 341 Z M 1309 348 L 1309 363 L 1322 363 L 1324 362 L 1327 358 L 1326 352 L 1322 348 L 1309 348 Z " /><path fill="rgb(26,34,33)" stroke="rgb(26,34,33)" stroke-width="1" opacity="0.9254901960784314" d="M 676.5 409 L 677 457.5 L 676 457.5 L 676.5 409 Z " /><path fill="rgb(26,34,33)" stroke="rgb(26,34,33)" stroke-width="1" opacity="0.9254901960784314" d="M 817.5 409 L 818 458.5 L 817 458.5 L 817.5 409 Z " /><path fill="rgb(26,34,33)" stroke="rgb(26,34,33)" stroke-width="1" opacity="0.9254901960784314" d="M 858.5 409 L 859 440.5 L 858 440.5 L 858.5 409 Z " /><path fill="rgb(26,34,33)" stroke="rgb(26,34,33)" stroke-width="1" opacity="0.9254901960784314" d="M 866.5 409 L 867 457.5 L 866 457.5 L 866.5 409 Z " /><path fill="rgb(26,34,33)" stroke="rgb(26,34,33)" stroke-width="1" opacity="0.9254901960784314" d="M 877.5 409 L 878 457.5 L 877 457.5 L 877.5 409 Z " /><path fill="rgb(26,34,33)" stroke="rgb(26,34,33)" stroke-width="1" opacity="0.9254901960784314" d="M 909.5 409 L 910 415.5 L 909 415.5 L 909.5 409 Z " /><path fill="rgb(26,34,33)" stroke="rgb(26,34,33)" stroke-width="1" opacity="0.9254901960784314" d="M 684.5 416 L 685 429.5 L 684 429.5 L 684.5 416 Z " /><path fill="rgb(26,34,33)" stroke="rgb(26,34,33)" stroke-width="1" opacity="0.9254901960784314" d="M 885.5 416 L 886 429.5 L 885 429.5 L 885.5 416 Z " /><path fill="rgb(26,34,33)" stroke="rgb(26,34,33)" stroke-width="1" opacity="0.9254901960784314" d="M 764.5 422 L 765 424.5 L 764 424.5 L 764.5 422 Z " /><path fill="rgb(26,34,33)" stroke="rgb(26,34,33)" stroke-width="1" opacity="0.9254901960784314" d="M 836.5 426 L 837 458.5 L 836 458.5 L 836.5 426 Z " /><path fill="rgb(26,34,33)" stroke="rgb(26,34,33)" stroke-width="1" opacity="0.9254901960784314" d="M 946.5 430 L 947 436.5 L 946 436.5 L 946.5 430 Z " /><path fill="rgb(26,34,33)" stroke="rgb(26,34,33)" stroke-width="1" opacity="0.9254901960784314" d="M 800.5 432 L 801 441.5 L 800 441.5 L 800.5 432 Z " /><path fill="rgb(26,34,33)" stroke="rgb(26,34,33)" stroke-width="1" opacity="0.9254901960784314" d="M 684.5 437 L 685 450.5 L 684 450.5 L 684.5 437 Z " /><path fill="rgb(26,34,33)" stroke="rgb(26,34,33)" stroke-width="1" opacity="0.9254901960784314" d="M 885.5 437 L 886 450.5 L 885 450.5 L 885.5 437 Z " /><path fill="rgb(26,34,33)" stroke="rgb(26,34,33)" stroke-width="1" opacity="0.9254901960784314" d="M 764.5 442 L 765 444.5 L 764 444.5 L 764.5 442 Z " /><path fill="rgb(26,34,33)" stroke="rgb(26,34,33)" stroke-width="1" opacity="0.9254901960784314" d="M 909.5 452 L 910 458.5 L 909 458.5 L 909.5 452 Z " /><path fill="rgb(0,113,121)" stroke="rgb(0,113,121)" stroke-width="1" opacity="0.9803921568627451" d="M 467.5 51 L 492 51.5 L 467.5 52 L 467.5 51 Z " /><path fill="rgb(0,113,121)" stroke="rgb(0,113,121)" stroke-width="1" opacity="0.9803921568627451" d="M 1022.5 51 L 1048 51.5 L 1022.5 52 L 1022.5 51 Z " /><path fill="rgb(0,113,121)" stroke="rgb(0,113,121)" stroke-width="1" opacity="0.9803921568627451" d="M 458.5 52 L 465 52.5 L 458.5 53 L 458.5 52 Z " /><path fill="rgb(0,113,121)" stroke="rgb(0,113,121)" stroke-width="1" opacity="0.9803921568627451" d="M 494.5 52 L 501 52.5 L 494.5 53 L 494.5 52 Z " /><path fill="rgb(0,113,121)" stroke="rgb(0,113,121)" stroke-width="1" opacity="0.9803921568627451" d="M 1013.5 52 L 1020 52.5 L 1013.5 53 L 1013.5 52 Z " /><path fill="rgb(0,113,121)" stroke="rgb(0,113,121)" stroke-width="1" opacity="0.9803921568627451" d="M 1050.5 52 L 1057 52.5 L 1050.5 53 L 1050.5 52 Z " /><path fill="rgb(0,113,121)" stroke="rgb(0,113,121)" stroke-width="1" opacity="0.9803921568627451" d="M 451.5 53 L 457 53.5 L 446.5 55 L 446.5 54 L 451.5 53 Z " /><path fill="rgb(0,113,121)" stroke="rgb(0,113,121)" stroke-width="1" opacity="0.9803921568627451" d="M 502.5 53 L 507 53.5 L 502.5 54 L 502.5 53 Z " /><path fill="rgb(0,113,121)" stroke="rgb(0,113,121)" stroke-width="1" opacity="0.9803921568627451" d="M 1006.5 53 L 1012 53.5 L 990.5 58 L 990.5 57 L 1006.5 53 Z " /><path fill="rgb(0,113,121)" stroke="rgb(0,113,121)" stroke-width="1" opacity="0.9803921568627451" d="M 1058.5 53 L 1063 53.5 L 1058.5 54 L 1058.5 53 Z " /><path fill="rgb(0,113,121)" stroke="rgb(0,113,121)" stroke-width="1" opacity="0.9803921568627451" d="M 508.5 54 L 512 54.5 L 508.5 55 L 508.5 54 Z " /><path fill="rgb(0,113,121)" stroke="rgb(0,113,121)" stroke-width="1" opacity="0.9803921568627451" d="M 676 54 L 868 54.5 L 677 55 L 676.5 290 L 676 54 Z " /><path fill="rgb(0,113,121)" stroke="rgb(0,113,121)" stroke-width="1" opacity="0.9803921568627451" d="M 1064.5 54 Q 1107.5 63 1132 90.5 Q 1143.9 102.6 1152 118.5 Q 1133.9 129.2 1113 136 Q 1106.4 122.6 1094.5 113 Q 1079.4 98.6 1054 94.5 L 1058.5 94 Q 1088.4 101.6 1105 122.5 L 1114.5 135 L 1151 118.5 Q 1139.2 97.3 1121.5 82 Q 1107.7 69.8 1089.5 62 Q 1078.7 56.8 1064.5 55 L 1064.5 54 Z " /><path fill="rgb(0,113,121)" stroke="rgb(0,113,121)" stroke-width="1" opacity="0.9803921568627451" d="M 1178 54 L 1370.5 54 L 1371 54.5 L 1371 95 L 1369 94.5 L 1369 55.5 L 1368.5 55 L 1179 55 L 1178.5 290 L 1178 54 Z " /><path fill="rgb(0,113,121)" stroke="rgb(0,113,121)" stroke-width="1" opacity="0.9803921568627451" d="M 442.5 55 L 445 55.5 L 442.5 56 L 442.5 55 Z " /><path fill="rgb(0,113,121)" stroke="rgb(0,113,121)" stroke-width="1" opacity="0.9803921568627451" d="M 513.5 55 Q 536 60.5 548 76.5 L 554 85.5 L 552 84.5 L 539.5 69 L 529.5 62 Q 523 57.5 513.5 56 L 513.5 55 Z " /><path fill="rgb(0,113,121)" stroke="rgb(0,113,121)" stroke-width="1" opacity="0.9803921568627451" d="M 437.5 56 L 441 56.5 L 434.5 58 L 434.5 57 L 437.5 56 Z " /><path fill="rgb(0,113,121)" stroke="rgb(0,113,121)" stroke-width="1" opacity="0.9803921568627451" d="M 430.5 58 L 433 58.5 L 427.5 60 L 427.5 59 L 430.5 58 Z " /><path fill="rgb(0,113,121)" stroke="rgb(0,113,121)" stroke-width="1" opacity="0.9803921568627451" d="M 981.5 60 L 983 60.5 Q 950.1 72.1 930 96.5 L 917.5 115 L 918 113.5 Q 927.8 93.8 944.5 81 Q 960.1 67.6 981.5 60 Z " /><path fill="rgb(0,113,121)" stroke="rgb(0,113,121)" stroke-width="1" opacity="0.9803921568627451" d="M 418.5 62 L 420 62.5 L 402.5 69 L 375.5 82 L 330.5 110 Q 291.9 136.4 260 169.5 Q 230 200.5 206 237.5 L 310.5 238 Q 331.1 205.1 359.5 180 L 400.5 147 L 430.5 131 L 430.5 132 Q 411.6 139.6 396.5 151 Q 367.5 172 343 197.5 Q 324.8 216.3 310.5 239 L 204 238.5 Q 237 187 281.5 147 Q 313.6 118.1 351.5 95 L 393.5 72 L 418.5 62 Z " /><path fill="rgb(0,113,121)" stroke="rgb(0,113,121)" stroke-width="1" opacity="0.9803921568627451" d="M 554.5 87 L 556 89.5 L 555 89.5 L 554.5 87 Z " /><path fill="rgb(0,113,121)" stroke="rgb(0,113,121)" stroke-width="1" opacity="0.9803921568627451" d="M 1026.5 92 L 1044 92.5 L 1026.5 93 L 1026.5 92 Z " /><path fill="rgb(0,113,121)" stroke="rgb(0,113,121)" stroke-width="1" opacity="0.9803921568627451" d="M 557.5 93 L 559 96.5 L 558 96.5 L 557.5 93 Z " /><path fill="rgb(0,113,121)" stroke="rgb(0,113,121)" stroke-width="1" opacity="0.9803921568627451" d="M 1017.5 93 L 1023 93.5 L 1017.5 94 L 1017.5 93 Z " /><path fill="rgb(0,113,121)" stroke="rgb(0,113,121)" stroke-width="1" opacity="0.9803921568627451" d="M 1047.5 93 L 1053 93.5 L 1047.5 94 L 1047.5 93 Z " /><path fill="rgb(0,113,121)" stroke="rgb(0,113,121)" stroke-width="1" opacity="0.9803921568627451" d="M 1011.5 94 L 1016 94.5 Q 999.1 96.6 987.5 104 L 988.5 102 L 1011.5 94 Z " /><path fill="rgb(0,113,121)" stroke="rgb(0,113,121)" stroke-width="1" opacity="0.9803921568627451" d="M 704.5 95 L 718 110.5 L 711 104.5 L 704 96.5 L 704.5 95 Z " /><path fill="rgb(0,113,121)" stroke="rgb(0,113,121)" stroke-width="1" opacity="0.9803921568627451" d="M 1205.5 95 L 1209 97.5 L 1221 111.5 L 1221 149 L 1349.5 149 L 1350 149.5 L 1350 191 L 1221 191 L 1221 249 L 1377.5 249 L 1378 249.5 L 1378 290 L 1376 289.5 L 1376 250.5 L 1375.5 250 L 1219 250 L 1219 190 L 1348.5 190 L 1349 189.5 L 1349 150 L 1219.5 150 L 1219 149.5 L 1219 111.5 L 1205.5 95 Z " /><path fill="rgb(0,113,121)" stroke="rgb(0,113,121)" stroke-width="1" opacity="0.9803921568627451" d="M 559.5 98 L 561 103.5 L 560 103.5 L 559.5 98 Z " /><path fill="rgb(0,113,121)" stroke="rgb(0,113,121)" stroke-width="1" opacity="0.9803921568627451" d="M 985.5 104 L 984.5 106 Q 970.7 112.7 962 124.5 L 951.5 143 L 951 141.5 L 955 133.5 L 967 117 L 985.5 104 Z " /><path fill="rgb(0,113,121)" stroke="rgb(0,113,121)" stroke-width="1" opacity="0.9803921568627451" d="M 561.5 105 L 562 108.5 L 561 108.5 L 561.5 105 Z " /><path fill="rgb(0,113,121)" stroke="rgb(0,113,121)" stroke-width="1" opacity="0.9803921568627451" d="M 562.5 110 L 563 115.5 L 562 115.5 L 562.5 110 Z " /><path fill="rgb(0,113,121)" stroke="rgb(0,113,121)" stroke-width="1" opacity="0.9803921568627451" d="M 493.5 113 L 503 113.5 L 493.5 114 L 493.5 113 Z " /><path fill="rgb(0,113,121)" stroke="rgb(0,113,121)" stroke-width="1" opacity="0.9803921568627451" d="M 483.5 114 L 490 114.5 L 483.5 115 L 483.5 114 Z " /><path fill="rgb(0,113,121)" stroke="rgb(0,113,121)" stroke-width="1" opacity="0.9803921568627451" d="M 506.5 114 L 512 114.5 L 506.5 115 L 506.5 114 Z " /><path fill="rgb(0,113,121)" stroke="rgb(0,113,121)" stroke-width="1" opacity="0.9803921568627451" d="M 477.5 115 L 482 115.5 Q 461 118.5 444.5 126 L 444.5 125 L 457.5 120 L 477.5 115 Z " /><path fill="rgb(0,113,121)" stroke="rgb(0,113,121)" stroke-width="1" opacity="0.9803921568627451" d="M 513.5 115 L 516 115.5 L 513.5 116 L 513.5 115 Z " /><path fill="rgb(0,113,121)" stroke="rgb(0,113,121)" stroke-width="1" opacity="0.9803921568627451" d="M 517.5 116 L 522 117.5 L 520.5 118 L 517.5 117 L 517.5 116 Z " /><path fill="rgb(0,113,121)" stroke="rgb(0,113,121)" stroke-width="1" opacity="0.9803921568627451" d="M 916.5 116 L 916 117.5 L 913.5 123 L 913 121.5 L 916.5 116 Z " /><path fill="rgb(0,113,121)" stroke="rgb(0,113,121)" stroke-width="1" opacity="0.9803921568627451" d="M 523.5 118 Q 533.2 121.8 539 129.5 Q 547.2 139.3 550 154.5 L 550 176.5 L 546 194.5 L 542 205.5 L 543 205.5 L 544.5 202 L 545 203.5 Q 536.2 222.7 524.5 239 L 524 237.5 Q 537.4 218.4 545 193.5 L 549 174.5 L 549 156.5 L 545 141.5 L 535 126 L 523.5 119 L 523.5 118 Z " /><path fill="rgb(0,113,121)" stroke="rgb(0,113,121)" stroke-width="1" opacity="0.9803921568627451" d="M 563.5 119 L 564 132.5 L 563 132.5 L 563.5 119 Z " /><path fill="rgb(0,113,121)" stroke="rgb(0,113,121)" stroke-width="1" opacity="0.9803921568627451" d="M 912.5 124 L 913 125.5 L 911.5 128 L 911 126.5 L 912.5 124 Z " /><path fill="rgb(0,113,121)" stroke="rgb(0,113,121)" stroke-width="1" opacity="0.9803921568627451" d="M 441.5 126 L 443 126.5 L 439.5 128 L 439.5 127 L 441.5 126 Z " /><path fill="rgb(0,113,121)" stroke="rgb(0,113,121)" stroke-width="1" opacity="0.9803921568627451" d="M 436.5 128 L 438 128.5 L 432.5 131 L 432.5 130 L 436.5 128 Z " /><path fill="rgb(0,113,121)" stroke="rgb(0,113,121)" stroke-width="1" opacity="0.9803921568627451" d="M 910.5 129 L 911 130.5 L 908.5 137 L 908 134.5 L 910.5 129 Z " /><path fill="rgb(0,113,121)" stroke="rgb(0,113,121)" stroke-width="1" opacity="0.9803921568627451" d="M 562.5 135 L 563 140.5 L 562 140.5 L 562.5 135 Z " /><path fill="rgb(0,113,121)" stroke="rgb(0,113,121)" stroke-width="1" opacity="0.9803921568627451" d="M 907.5 138 L 908 140.5 L 906.5 145 L 906 141.5 L 907.5 138 Z " /><path fill="rgb(0,113,121)" stroke="rgb(0,113,121)" stroke-width="1" opacity="0.9803921568627451" d="M 561.5 143 L 562 147.5 L 561 147.5 L 561.5 143 Z " /><path fill="rgb(0,113,121)" stroke="rgb(0,113,121)" stroke-width="1" opacity="0.9803921568627451" d="M 905.5 146 L 906 149.5 L 905 149.5 L 905.5 146 Z " /><path fill="rgb(0,113,121)" stroke="rgb(0,113,121)" stroke-width="1" opacity="0.9803921568627451" d="M 560.5 149 L 561 153.5 L 560 153.5 L 560.5 149 Z " /><path fill="rgb(0,113,121)" stroke="rgb(0,113,121)" stroke-width="1" opacity="0.9803921568627451" d="M 718.5 149 L 847.5 149 L 848 149.5 L 848 191 L 718 190.5 L 847 190 L 847 150.5 L 846.5 150 L 718.5 150 L 718.5 149 Z " /><path fill="rgb(0,113,121)" stroke="rgb(0,113,121)" stroke-width="1" opacity="0.9803921568627451" d="M 948.5 150 L 949 152.5 L 947.5 157 L 947 153.5 L 948.5 150 Z " /><path fill="rgb(0,113,121)" stroke="rgb(0,113,121)" stroke-width="1" opacity="0.9803921568627451" d="M 904.5 151 L 905 156.5 L 904 156.5 L 904.5 151 Z " /><path fill="rgb(0,113,121)" stroke="rgb(0,113,121)" stroke-width="1" opacity="0.9803921568627451" d="M 559.5 155 L 560 157.5 L 559 157.5 L 559.5 155 Z " /><path fill="rgb(0,113,121)" stroke="rgb(0,113,121)" stroke-width="1" opacity="0.9803921568627451" d="M 946.5 158 Q 949.3 159.3 947 160.5 L 946.5 164 L 946.5 158 Z " /><path fill="rgb(0,113,121)" stroke="rgb(0,113,121)" stroke-width="1" opacity="0.9803921568627451" d="M 558.5 159 L 559 162.5 L 558 162.5 L 558.5 159 Z " /><path fill="rgb(0,113,121)" stroke="rgb(0,113,121)" stroke-width="1" opacity="0.9803921568627451" d="M 903.5 159 L 904 186.5 L 903 186.5 L 903.5 159 Z " /><path fill="rgb(0,113,121)" stroke="rgb(0,113,121)" stroke-width="1" opacity="0.9803921568627451" d="M 557.5 164 L 558 166.5 L 557 166.5 L 557.5 164 Z " /><path fill="rgb(0,113,121)" stroke="rgb(0,113,121)" stroke-width="1" opacity="0.9803921568627451" d="M 945.5 167 L 946 179.5 L 945 179.5 L 945.5 167 Z " /><path fill="rgb(0,113,121)" stroke="rgb(0,113,121)" stroke-width="1" opacity="0.9803921568627451" d="M 556.5 168 L 557 170.5 L 555.5 174 L 555 171.5 L 556.5 168 Z " /><path fill="rgb(0,113,121)" stroke="rgb(0,113,121)" stroke-width="1" opacity="0.9803921568627451" d="M 946.5 182 L 947 187.5 L 946 187.5 L 946.5 182 Z " /><path fill="rgb(0,113,121)" stroke="rgb(0,113,121)" stroke-width="1" opacity="0.9803921568627451" d="M 550.5 187 L 551 188.5 L 548.5 194 L 548 192.5 L 550.5 187 Z " /><path fill="rgb(0,113,121)" stroke="rgb(0,113,121)" stroke-width="1" opacity="0.9803921568627451" d="M 904.5 189 L 905 194.5 L 904 194.5 L 904.5 189 Z " /><path fill="rgb(0,113,121)" stroke="rgb(0,113,121)" stroke-width="1" opacity="0.9803921568627451" d="M 947.5 189 L 948 192.5 L 947 192.5 L 947.5 189 Z " /><path fill="rgb(0,113,121)" stroke="rgb(0,113,121)" stroke-width="1" opacity="0.9803921568627451" d="M 948.5 194 L 951 201.5 L 950 201.5 L 948.5 194 Z " /><path fill="rgb(0,113,121)" stroke="rgb(0,113,121)" stroke-width="1" opacity="0.9803921568627451" d="M 547.5 195 L 548 196.5 L 545.5 201 L 545 199.5 L 547.5 195 Z " /><path fill="rgb(0,113,121)" stroke="rgb(0,113,121)" stroke-width="1" opacity="0.9803921568627451" d="M 905.5 196 L 906 199.5 L 905 199.5 L 905.5 196 Z " /><path fill="rgb(0,113,121)" stroke="rgb(0,113,121)" stroke-width="1" opacity="0.9803921568627451" d="M 906.5 201 L 907 203.5 L 906 203.5 L 906.5 201 Z " /><path fill="rgb(0,113,121)" stroke="rgb(0,113,121)" stroke-width="1" opacity="0.9803921568627451" d="M 951.5 203 Q 959.3 222.2 974.5 234 Q 985 242.5 999 247.5 L 997.5 248 Q 974.8 239.2 961 221.5 Q 954.1 213.4 951.5 203 Z " /><path fill="rgb(0,113,121)" stroke="rgb(0,113,121)" stroke-width="1" opacity="0.9803921568627451" d="M 907.5 205 L 908 207.5 L 907 207.5 L 907.5 205 Z " /><path fill="rgb(0,113,121)" stroke="rgb(0,113,121)" stroke-width="1" opacity="0.9803921568627451" d="M 908.5 209 L 911 216.5 L 910 216.5 L 908.5 209 Z " /><path fill="rgb(0,113,121)" stroke="rgb(0,113,121)" stroke-width="1" opacity="0.9803921568627451" d="M 1114.5 213 L 1138 225.5 L 1136.5 226 L 1115.5 215 L 1114.5 213 Z " /><path fill="rgb(0,113,121)" stroke="rgb(0,113,121)" stroke-width="1" opacity="0.9803921568627451" d="M 1113.5 215 L 1113 216.5 Q 1108 227 1099.5 234 Q 1091.3 241.8 1079.5 246 L 1079.5 245 Q 1097.3 237.8 1108 223.5 L 1113.5 215 Z " /><path fill="rgb(0,113,121)" stroke="rgb(0,113,121)" stroke-width="1" opacity="0.9803921568627451" d="M 911.5 218 L 913 221.5 L 912 221.5 L 911.5 218 Z " /><path fill="rgb(0,113,121)" stroke="rgb(0,113,121)" stroke-width="1" opacity="0.9803921568627451" d="M 913.5 223 L 919 233.5 L 917 232.5 L 913 224.5 L 913.5 223 Z " /><path fill="rgb(0,113,121)" stroke="rgb(0,113,121)" stroke-width="1" opacity="0.9803921568627451" d="M 1139.5 226 L 1151 232.5 Q 1142 254 1124.5 267 Q 1109.9 279.4 1089.5 286 L 1089.5 285 Q 1117.5 275.5 1135 255.5 Q 1144.2 245.7 1150 232.5 L 1140.5 228 L 1139.5 226 Z " /><path fill="rgb(0,113,121)" stroke="rgb(0,113,121)" stroke-width="1" opacity="0.9803921568627451" d="M 919.5 235 Q 928.6 250.4 941.5 262 Q 959.1 277.9 984 286.5 L 982.5 287 Q 951 275.5 931 252.5 L 920 237.5 L 919.5 235 Z " /><path fill="rgb(0,113,121)" stroke="rgb(0,113,121)" stroke-width="1" opacity="0.9803921568627451" d="M 1076.5 246 L 1078 246.5 L 1066.5 251 L 1058.5 252 L 1058.5 251 Q 1069.5 250.5 1076.5 246 Z " /><path fill="rgb(0,113,121)" stroke="rgb(0,113,121)" stroke-width="1" opacity="0.9803921568627451" d="M 1000.5 248 L 1005 249.5 L 1002.5 250 L 1000.5 248 Z " /><path fill="rgb(0,113,121)" stroke="rgb(0,113,121)" stroke-width="1" opacity="0.9803921568627451" d="M 718.5 249 L 875 249.5 L 718.5 250 L 718.5 249 Z " /><path fill="rgb(0,113,121)" stroke="rgb(0,113,121)" stroke-width="1" opacity="0.9803921568627451" d="M 1006.5 250 L 1013 251.5 L 1009.5 252 L 1006.5 251 L 1006.5 250 Z " /><path fill="rgb(0,113,121)" stroke="rgb(0,113,121)" stroke-width="1" opacity="0.9803921568627451" d="M 1014.5 252 L 1019 252.5 L 1014.5 253 L 1014.5 252 Z " /><path fill="rgb(0,113,121)" stroke="rgb(0,113,121)" stroke-width="1" opacity="0.9803921568627451" d="M 1052.5 252 L 1057 252.5 L 1052.5 253 L 1052.5 252 Z " /><path fill="rgb(0,113,121)" stroke="rgb(0,113,121)" stroke-width="1" opacity="0.9803921568627451" d="M 1020.5 253 L 1030 253.5 L 1020.5 254 L 1020.5 253 Z " /><path fill="rgb(0,113,121)" stroke="rgb(0,113,121)" stroke-width="1" opacity="0.9803921568627451" d="M 1040.5 253 L 1051 253.5 L 1040.5 254 L 1040.5 253 Z " /><path fill="rgb(0,113,121)" stroke="rgb(0,113,121)" stroke-width="1" opacity="0.9803921568627451" d="M 292.5 272 L 293 273.5 Q 279.6 292.1 272.5 317 L 272 314.5 L 274 308.5 L 273 308.5 Q 264.2 327.2 259 349.5 L 255 371.5 L 255 398.5 Q 260 426 277.5 441 Q 288.7 451.8 307 455.5 L 303.5 456 Q 279.9 449.1 267 431.5 Q 259 421 255 406.5 L 254 395.5 L 253 394.5 L 253 375.5 L 254 374.5 L 254 367.5 L 257 351.5 L 267 318.5 Q 277.2 292.7 292.5 272 Z M 276 303 L 275 306 L 276 306 L 276 303 Z " /><path fill="rgb(0,113,121)" stroke="rgb(0,113,121)" stroke-width="1" opacity="0.9803921568627451" d="M 506.5 272 L 611.5 272 L 612 273.5 Q 581.7 320.7 541.5 358 Q 503.1 393.6 456.5 421 L 413.5 443 L 388.5 452 L 374.5 455 L 374.5 454 L 388.5 451 L 408.5 444 L 456.5 420 Q 514.7 385.7 560 338.5 Q 588.5 309 611 273.5 L 506 273 Q 485.6 307.3 455.5 333 Q 434.5 352 410.5 368 Q 385.7 383.7 353.5 392 L 353.5 391 L 378.5 383 L 408.5 368 Q 445.4 343.9 475 312.5 Q 492.6 294.1 506.5 272 Z " /><path fill="rgb(0,113,121)" stroke="rgb(0,113,121)" stroke-width="1" opacity="0.9803921568627451" d="M 1086.5 286 L 1088 286.5 L 1083.5 288 L 1083.5 287 L 1086.5 286 Z " /><path fill="rgb(0,113,121)" stroke="rgb(0,113,121)" stroke-width="1" opacity="0.9803921568627451" d="M 988.5 288 L 994 289.5 L 991.5 290 L 988.5 289 L 988.5 288 Z " /><path fill="rgb(0,113,121)" stroke="rgb(0,113,121)" stroke-width="1" opacity="0.9803921568627451" d="M 1079.5 288 L 1082 288.5 L 1076.5 290 L 1076.5 289 L 1079.5 288 Z " /><path fill="rgb(0,113,121)" stroke="rgb(0,113,121)" stroke-width="1" opacity="0.9803921568627451" d="M 995.5 290 L 998 290.5 L 995.5 291 L 995.5 290 Z " /><path fill="rgb(0,113,121)" stroke="rgb(0,113,121)" stroke-width="1" opacity="0.9803921568627451" d="M 1071.5 290 L 1075 290.5 L 1067.5 292 L 1067.5 291 L 1071.5 290 Z " /><path fill="rgb(0,113,121)" stroke="rgb(0,113,121)" stroke-width="1" opacity="0.9803921568627451" d="M 999.5 291 L 1003 291.5 L 999.5 292 L 999.5 291 Z " /><path fill="rgb(0,113,121)" stroke="rgb(0,113,121)" stroke-width="1" opacity="0.9803921568627451" d="M 1004.5 292 L 1009 292.5 L 1004.5 293 L 1004.5 292 Z " /><path fill="rgb(0,113,121)" stroke="rgb(0,113,121)" stroke-width="1" opacity="0.9803921568627451" d="M 1061.5 292 L 1066 292.5 L 1061.5 293 L 1061.5 292 Z " /><path fill="rgb(0,113,121)" stroke="rgb(0,113,121)" stroke-width="1" opacity="0.9803921568627451" d="M 1010.5 293 L 1016 293.5 L 1010.5 294 L 1010.5 293 Z " /><path fill="rgb(0,113,121)" stroke="rgb(0,113,121)" stroke-width="1" opacity="0.9803921568627451" d="M 1053.5 293 L 1060 293.5 L 1053.5 294 L 1053.5 293 Z " /><path fill="rgb(0,113,121)" stroke="rgb(0,113,121)" stroke-width="1" opacity="0.9803921568627451" d="M 1018.5 294 L 1034 294.5 L 1018.5 295 L 1018.5 294 Z " /><path fill="rgb(0,113,121)" stroke="rgb(0,113,121)" stroke-width="1" opacity="0.9803921568627451" d="M 1036.5 294 L 1051 294.5 L 1036.5 295 L 1036.5 294 Z " /><path fill="rgb(0,113,121)" stroke="rgb(0,113,121)" stroke-width="1" opacity="0.9803921568627451" d="M 271.5 318 L 272 320.5 L 270 325.5 L 268.5 336 L 268 330.5 L 271.5 318 Z " /><path fill="rgb(0,113,121)" stroke="rgb(0,113,121)" stroke-width="1" opacity="0.9803921568627451" d="M 267.5 338 L 268 352.5 L 267 352.5 L 267.5 338 Z " /><path fill="rgb(0,113,121)" stroke="rgb(0,113,121)" stroke-width="1" opacity="0.9803921568627451" d="M 268.5 355 Q 271.7 376.3 285.5 387 Q 291.4 392.6 301 394.5 L 298.5 395 Q 284.7 390.3 277 379.5 L 270 366.5 L 268 359.5 L 268.5 355 Z " /><path fill="rgb(0,113,121)" stroke="rgb(0,113,121)" stroke-width="1" opacity="0.9803921568627451" d="M 349.5 392 L 352 392.5 L 349.5 393 L 349.5 392 Z " /><path fill="rgb(0,113,121)" stroke="rgb(0,113,121)" stroke-width="1" opacity="0.9803921568627451" d="M 345.5 393 L 348 393.5 L 345.5 394 L 345.5 393 Z " /><path fill="rgb(0,113,121)" stroke="rgb(0,113,121)" stroke-width="1" opacity="0.9803921568627451" d="M 340.5 394 L 344 394.5 L 340.5 395 L 340.5 394 Z " /><path fill="rgb(0,113,121)" stroke="rgb(0,113,121)" stroke-width="1" opacity="0.9803921568627451" d="M 302.5 395 L 314 396.5 L 306.5 397 L 302.5 396 L 302.5 395 Z " /><path fill="rgb(0,113,121)" stroke="rgb(0,113,121)" stroke-width="1" opacity="0.9803921568627451" d="M 334.5 395 L 339 395.5 L 334.5 396 L 334.5 395 Z " /><path fill="rgb(0,113,121)" stroke="rgb(0,113,121)" stroke-width="1" opacity="0.9803921568627451" d="M 324.5 396 L 333 396.5 L 324.5 397 L 324.5 396 Z " /><path fill="rgb(0,113,121)" stroke="rgb(0,113,121)" stroke-width="1" opacity="0.9803921568627451" d="M 677 408 L 708.5 408 L 709 408.5 L 709 416 L 684 415.5 L 708 415 L 708 409.5 L 707.5 409 L 678 409 L 678 458 L 708 458 L 708 452.5 L 707.5 452 L 684.5 452 L 684.5 451 L 708.5 451 L 709 451.5 L 709 459 L 677 459 L 677 408 Z " /><path fill="rgb(0,113,121)" stroke="rgb(0,113,121)" stroke-width="1" opacity="0.9803921568627451" d="M 717 408 Q 724.1 406.3 726 410.5 L 745 441 L 747 440.5 L 747 408.5 L 747.5 408 L 755 408 L 755 458.5 L 754.5 459 L 747 459 L 726.5 427 L 725 427.5 L 725 458.5 L 724.5 459 L 717 459 L 717 408 Z M 718 409 L 718 458 L 724 458 L 724 458 L 724 425 L 726 424 L 749 458 Q 754 459 754 458 L 754 409 L 749 409 L 748 410 L 748 443 L 747 443 L 725 411 Q 723 408 718 409 Z " /><path fill="rgb(0,113,121)" stroke="rgb(0,113,121)" stroke-width="1" opacity="0.9803921568627451" d="M 777.5 408 L 787 408.5 L 777.5 409 L 768 415.5 L 765.5 423 L 765 419.5 L 771.5 411 L 777.5 408 Z " /><path fill="rgb(0,113,121)" stroke="rgb(0,113,121)" stroke-width="1" opacity="0.9803921568627451" d="M 810 408 L 817 408.5 L 811 409 L 811 457.5 Q 811.1 458.6 816.5 458 L 816.5 459 Q 810.3 459.8 810 458.5 L 810 408 Z " /><path fill="rgb(0,113,121)" stroke="rgb(0,113,121)" stroke-width="1" opacity="0.9803921568627451" d="M 829 408 L 835.5 408 L 837 409.5 L 857.5 441 Q 860.1 440.3 859 443 Q 856.3 444.1 857 441.5 L 837 412.5 L 836 409 L 830.5 409 L 830 409.5 L 830 458 L 836 458.5 L 829 459 L 829 408 Z " /><path fill="rgb(0,113,121)" stroke="rgb(0,113,121)" stroke-width="1" opacity="0.9803921568627451" d="M 859.5 408 Q 865.8 407.3 866 408.5 L 866 459 L 859.5 459 L 858 457.5 L 837.5 426 Q 834.9 426.7 836 424 Q 838.7 422.9 838 425.5 L 859 458 L 864.5 458 L 865 457.5 L 865 409 L 859.5 409 L 859.5 408 Z " /><path fill="rgb(0,113,121)" stroke="rgb(0,113,121)" stroke-width="1" opacity="0.9803921568627451" d="M 878.5 408 L 909 408.5 L 878.5 409 L 878.5 408 Z " /><path fill="rgb(0,113,121)" stroke="rgb(0,113,121)" stroke-width="1" opacity="0.9803921568627451" d="M 918 408 L 949.5 408 L 950 408.5 L 950 416 L 926 416 L 926 429.5 L 925 429.5 L 925 415 L 948.5 415 L 949 414.5 L 949 409 L 919 409 L 919 458 L 948.5 458 L 949 457.5 L 949 452 L 925 452 L 925 437.5 L 926 437.5 L 926 451 L 950 451 L 950 459 L 918 459 L 918 408 Z " /><path fill="rgb(0,113,121)" stroke="rgb(0,113,121)" stroke-width="1" opacity="0.9803921568627451" d="M 959.5 408 L 980 408.5 L 959.5 409 L 959.5 408 Z " /><path fill="rgb(0,113,121)" stroke="rgb(0,113,121)" stroke-width="1" opacity="0.9803921568627451" d="M 1003 408 Q 1009.1 406.2 1011 409.5 L 1011 458.5 L 1010.5 459 L 1003 459 L 1003 408 Z M 1004 409 L 1004 458 L 1005 458 L 1010 458 L 1010 410 L 1010 409 L 1004 409 Z " /><path fill="rgb(0,113,121)" stroke="rgb(0,113,121)" stroke-width="1" opacity="0.9803921568627451" d="M 1022 408 Q 1028.1 406.2 1030 409.5 L 1050 441 Q 1053 440 1052 443 Q 1049.3 444.1 1050 441.5 L 1030 412.5 L 1029 409 L 1023.5 409 L 1023 409.5 L 1023 458 L 1028.5 458 L 1029 457.5 L 1029 427.5 L 1030 427.5 L 1030 458.5 L 1029.5 459 L 1022 459 L 1022 408 Z " /><path fill="rgb(0,113,121)" stroke="rgb(0,113,121)" stroke-width="1" opacity="0.9803921568627451" d="M 1052.5 408 Q 1058.5 406.5 1060 409.5 L 1060 458.5 L 1059.5 459 L 1052.5 459 L 1030.5 426 Q 1027.9 426.7 1029 424 Q 1031.7 422.9 1031 425.5 L 1052 458 L 1057.5 458 L 1058 457.5 L 1058 409 L 1052.5 409 L 1052.5 408 Z " /><path fill="rgb(0,113,121)" stroke="rgb(0,113,121)" stroke-width="1" opacity="0.9803921568627451" d="M 1082.5 408 Q 1098.4 406.6 1103 416.5 L 1105 423.5 L 1104 423.5 L 1103 418.5 L 1096.5 411 Q 1091.8 407.7 1082.5 409 Q 1075.3 410.8 1072 416.5 L 1070.5 420 L 1070 418.5 L 1074.5 412 L 1082.5 408 Z " /><path fill="rgb(0,113,121)" stroke="rgb(0,113,121)" stroke-width="1" opacity="0.9803921568627451" d="M 1138.5 408 L 1149 408.5 L 1138.5 409 Q 1132.8 410.3 1130 414.5 L 1128 418.5 L 1127.5 428 L 1127 418.5 L 1133.5 410 L 1138.5 408 Z " /><path fill="rgb(0,113,121)" stroke="rgb(0,113,121)" stroke-width="1" opacity="0.9803921568627451" d="M 1181.5 408 L 1190 408.5 L 1181.5 409 L 1181.5 408 Z " /><path fill="rgb(0,113,121)" stroke="rgb(0,113,121)" stroke-width="1" opacity="0.9803921568627451" d="M 1212.5 408 Q 1218.5 406.5 1220 409.5 L 1220 429.5 L 1218 430 L 1218 409.5 Q 1217.9 408.4 1212.5 409 L 1212.5 408 Z " /><path fill="rgb(0,113,121)" stroke="rgb(0,113,121)" stroke-width="1" opacity="0.9803921568627451" d="M 1239 408 L 1246.5 408 L 1247 408.5 L 1247 459 L 1239 459 L 1239 437.5 L 1240 437.5 L 1240 457.5 L 1240.5 458 L 1246 458 L 1246 409.5 L 1245.5 409 L 1240 409 L 1239.5 430 L 1239 408 Z " /><path fill="rgb(0,113,121)" stroke="rgb(0,113,121)" stroke-width="1" opacity="0.9803921568627451" d="M 1270.5 408 Q 1285 407 1290 415.5 L 1293 423.5 L 1293 443.5 L 1291 450.5 L 1284.5 457 L 1277.5 459 L 1277.5 458 Q 1285 457.5 1288 452.5 L 1291 446.5 L 1291 420.5 L 1283.5 411 Q 1279.1 407.9 1270.5 409 L 1270.5 408 Z " /><path fill="rgb(0,113,121)" stroke="rgb(0,113,121)" stroke-width="1" opacity="0.9803921568627451" d="M 1313.5 408 L 1322.5 408 L 1333 414.5 L 1336 420.5 L 1336 446.5 Q 1334.5 453 1329.5 456 Q 1326.5 459 1320.5 459 L 1320.5 458 Q 1329.5 457 1333 450.5 L 1335 443.5 L 1335 423.5 Q 1333.8 415.7 1328.5 412 Q 1324 407.5 1313.5 409 Q 1306.3 410.8 1303 416.5 L 1301 421.5 L 1300.5 446 L 1300 421.5 L 1304 413 L 1313.5 408 Z " /><path fill="rgb(0,113,121)" stroke="rgb(0,113,121)" stroke-width="1" opacity="0.9803921568627451" d="M 1345 408 L 1352.5 408 L 1354 409.5 L 1354 451 L 1376.5 451 Q 1379.3 452.3 1378 457.5 L 1376.5 459 L 1345 459 L 1345 408 Z M 1346 409 L 1346 458 L 1376 458 L 1376 453 L 1376 452 L 1352 452 L 1352 410 L 1352 409 L 1346 409 Z " /><path fill="rgb(0,113,121)" stroke="rgb(0,113,121)" stroke-width="1" opacity="0.9803921568627451" d="M 788.5 409 L 797 414.5 L 800 420.5 L 800 423.5 L 799 423.5 Q 798 414.5 791.5 411 Q 787.8 410.7 788.5 409 Z " /><path fill="rgb(0,113,121)" stroke="rgb(0,113,121)" stroke-width="1" opacity="0.9803921568627451" d="M 981.5 409 L 984 409.5 L 981.5 410 L 981.5 409 Z " /><path fill="rgb(0,113,121)" stroke="rgb(0,113,121)" stroke-width="1" opacity="0.9803921568627451" d="M 1150.5 409 Q 1156.4 409.6 1159 413.5 L 1154.5 419 Q 1150.4 414.1 1139.5 416 L 1136 418.5 L 1135 424.5 L 1137.5 428 L 1144 429.5 L 1139.5 430 L 1134 425.5 L 1133 422.5 L 1137.5 416 Q 1141.3 413.3 1149.5 415 L 1154.5 418 Q 1161.5 414.5 1154.5 411 L 1150.5 410 L 1150.5 409 Z " /><path fill="rgb(0,113,121)" stroke="rgb(0,113,121)" stroke-width="1" opacity="0.9803921568627451" d="M 1178.5 409 L 1180 409.5 L 1171 415.5 L 1168.5 423 L 1168 419.5 L 1174.5 411 L 1178.5 409 Z " /><path fill="rgb(0,113,121)" stroke="rgb(0,113,121)" stroke-width="1" opacity="0.9803921568627451" d="M 1191.5 409 Q 1198 410.5 1201 415.5 L 1204 424 L 1195.5 424 L 1195 422.5 L 1190.5 417 L 1181.5 416 L 1178 418 L 1176 422.5 L 1176 444.5 L 1179.5 450 L 1183 451.5 L 1180.5 452 L 1175 445.5 Q 1172.5 438 1174 426.5 L 1176 419.5 L 1179.5 416 L 1188.5 415 L 1194 418.5 L 1196.5 423 L 1202 423 L 1202 420.5 L 1194.5 411 Q 1190.7 410.7 1191.5 409 Z " /><path fill="rgb(0,113,121)" stroke="rgb(0,113,121)" stroke-width="1" opacity="0.9803921568627451" d="M 1267.5 409 L 1269 409.5 L 1260 415.5 L 1257.5 423 L 1257 419.5 L 1263.5 411 L 1267.5 409 Z " /><path fill="rgb(0,113,121)" stroke="rgb(0,113,121)" stroke-width="1" opacity="0.9803921568627451" d="M 985.5 410 L 992 415.5 Q 994.9 419.1 994 426.5 Q 992.8 432.3 988.5 435 L 984 437.5 L 995 459 L 986.5 459 L 985 457.5 L 976 438 L 967 438 L 967 459 L 959.5 459 L 959.5 458 Q 965.8 458.8 966 457.5 L 966 437 L 977 437 L 986 458 L 994 457.5 L 983 436 Q 988.4 435.4 991 430.5 Q 993.6 427.6 993 421.5 Q 991.9 414.1 986.5 411 L 985.5 410 Z " /><path fill="rgb(0,113,121)" stroke="rgb(0,113,121)" stroke-width="1" opacity="0.9803921568627451" d="M 778.5 415 L 786 415.5 Q 777 414.5 774 419.5 L 772.5 424 L 772 421.5 L 776.5 416 L 778.5 415 Z " /><path fill="rgb(0,113,121)" stroke="rgb(0,113,121)" stroke-width="1" opacity="0.9803921568627451" d="M 884 415 L 909 415.5 L 885 416 L 884.5 430 L 884 415 Z " /><path fill="rgb(0,113,121)" stroke="rgb(0,113,121)" stroke-width="1" opacity="0.9803921568627451" d="M 966 415 L 979.5 415 L 986 419.5 L 985.5 421 L 982.5 417 L 979.5 416 L 967 416 L 966.5 431 L 966 415 Z " /><path fill="rgb(0,113,121)" stroke="rgb(0,113,121)" stroke-width="1" opacity="0.9803921568627451" d="M 1083.5 415 Q 1094.6 413.4 1097 420.5 L 1096.5 422 L 1092.5 417 L 1083.5 416 L 1078 420.5 L 1077 424.5 L 1077 443.5 L 1080 450 L 1085 451.5 L 1082.5 452 L 1078 448.5 L 1076 444.5 L 1076 422.5 L 1079.5 417 L 1083.5 415 Z " /><path fill="rgb(0,113,121)" stroke="rgb(0,113,121)" stroke-width="1" opacity="0.9803921568627451" d="M 1270.5 415 Q 1279.9 413.6 1283 418.5 Q 1286.2 421.8 1285 429.5 L 1284 429.5 Q 1285.6 419.4 1279.5 417 L 1270.5 416 L 1265 422.5 L 1265 444.5 L 1268.5 450 L 1273 451.5 L 1269.5 452 L 1266 450 L 1263 442.5 L 1263 425.5 Q 1263.9 418.9 1268.5 416 L 1270.5 415 Z " /><path fill="rgb(0,113,121)" stroke="rgb(0,113,121)" stroke-width="1" opacity="0.9803921568627451" d="M 1314.5 415 Q 1324.6 413.4 1327 419.5 L 1328 423.5 L 1327 423.5 Q 1326.8 418.8 1323.5 417 L 1314.5 416 L 1310 419.5 Q 1306 427.5 1308 441.5 Q 1308.9 448.1 1313.5 451 L 1316 451.5 L 1313.5 452 L 1308 447.5 L 1307 444.5 L 1307 422.5 L 1310.5 417 L 1314.5 415 Z " /><path fill="rgb(0,113,121)" stroke="rgb(0,113,121)" stroke-width="1" opacity="0.9803921568627451" d="M 787.5 416 L 791 418.5 L 793 423.5 L 792 423.5 L 790 418 L 787.5 416 Z " /><path fill="rgb(0,113,121)" stroke="rgb(0,113,121)" stroke-width="1" opacity="0.9803921568627451" d="M 1069.5 421 L 1070 445.5 L 1069 445.5 L 1069.5 421 Z " /><path fill="rgb(0,113,121)" stroke="rgb(0,113,121)" stroke-width="1" opacity="0.9803921568627451" d="M 986.5 422 L 987 424.5 L 986 424.5 L 986.5 422 Z " /><path fill="rgb(0,113,121)" stroke="rgb(0,113,121)" stroke-width="1" opacity="0.9803921568627451" d="M 764.5 425 L 765 441.5 L 764 441.5 L 764.5 425 Z " /><path fill="rgb(0,113,121)" stroke="rgb(0,113,121)" stroke-width="1" opacity="0.9803921568627451" d="M 771.5 425 L 772 442.5 L 771 442.5 L 771.5 425 Z " /><path fill="rgb(0,113,121)" stroke="rgb(0,113,121)" stroke-width="1" opacity="0.9803921568627451" d="M 1256.5 425 L 1257 441.5 L 1256 441.5 L 1256.5 425 Z " /><path fill="rgb(0,113,121)" stroke="rgb(0,113,121)" stroke-width="1" opacity="0.9803921568627451" d="M 1328.5 425 L 1329 441.5 L 1328 441.5 L 1328.5 425 Z " /><path fill="rgb(0,113,121)" stroke="rgb(0,113,121)" stroke-width="1" opacity="0.9803921568627451" d="M 1167.5 427 L 1168 440.5 L 1167 440.5 L 1167.5 427 Z " /><path fill="rgb(0,113,121)" stroke="rgb(0,113,121)" stroke-width="1" opacity="0.9803921568627451" d="M 984.5 428 L 983.5 430 L 980.5 431 L 980.5 430 L 984.5 428 Z " /><path fill="rgb(0,113,121)" stroke="rgb(0,113,121)" stroke-width="1" opacity="0.9803921568627451" d="M 1128.5 429 L 1131.5 433 Q 1135.4 436.6 1143 436.5 L 1137.5 437 Q 1131.8 435.8 1129 431.5 L 1128.5 429 Z " /><path fill="rgb(0,113,121)" stroke="rgb(0,113,121)" stroke-width="1" opacity="0.9803921568627451" d="M 704.5 430 L 705 436.5 L 704 436.5 L 704.5 430 Z " /><path fill="rgb(0,113,121)" stroke="rgb(0,113,121)" stroke-width="1" opacity="0.9803921568627451" d="M 905.5 430 L 906 436.5 L 905 436.5 L 905.5 430 Z " /><path fill="rgb(0,113,121)" stroke="rgb(0,113,121)" stroke-width="1" opacity="0.9803921568627451" d="M 1145.5 430 L 1150 430.5 L 1145.5 431 L 1145.5 430 Z " /><path fill="rgb(0,113,121)" stroke="rgb(0,113,121)" stroke-width="1" opacity="0.9803921568627451" d="M 782 431 L 800 431.5 L 783 432 L 783 438 L 794 438 L 794 441.5 L 793 441.5 L 792.5 439 L 782 439 L 782 431 Z " /><path fill="rgb(0,113,121)" stroke="rgb(0,113,121)" stroke-width="1" opacity="0.9803921568627451" d="M 1087.5 431 L 1104.5 431 L 1106 432.5 L 1105 446.5 Q 1103.5 453 1098.5 456 L 1096.5 457 L 1102 450.5 L 1104 445.5 L 1104 432 L 1087.5 432 L 1087.5 431 Z " /><path fill="rgb(0,113,121)" stroke="rgb(0,113,121)" stroke-width="1" opacity="0.9803921568627451" d="M 1151.5 431 L 1159 435.5 Q 1162.5 439.5 1161 448.5 L 1155.5 456 L 1149.5 459 L 1146.5 459 L 1146.5 458 L 1149.5 458 L 1157 453.5 Q 1161.2 449.7 1160 440.5 L 1154.5 433 Q 1150.8 432.8 1151.5 431 Z " /><path fill="rgb(0,113,121)" stroke="rgb(0,113,121)" stroke-width="1" opacity="0.9803921568627451" d="M 884.5 437 L 885 451 L 909 451.5 L 884 452 L 884.5 437 Z " /><path fill="rgb(0,113,121)" stroke="rgb(0,113,121)" stroke-width="1" opacity="0.9803921568627451" d="M 1144.5 437 Q 1151.4 436.1 1153 440.5 L 1154 446.5 L 1150.5 451 L 1146.5 452 L 1146.5 451 L 1152 448.5 L 1153 442.5 L 1150.5 439 L 1144.5 438 L 1144.5 437 Z " /><path fill="rgb(0,113,121)" stroke="rgb(0,113,121)" stroke-width="1" opacity="0.9803921568627451" d="M 1218 437 L 1220 437.5 L 1220 459 L 1212 458.5 L 1218 458 L 1218 437 Z " /><path fill="rgb(0,113,121)" stroke="rgb(0,113,121)" stroke-width="1" opacity="0.9803921568627451" d="M 1284.5 437 L 1285 444.5 L 1284 444.5 L 1284.5 437 Z " /><path fill="rgb(0,113,121)" stroke="rgb(0,113,121)" stroke-width="1" opacity="0.9803921568627451" d="M 1087.5 438 L 1098 438 L 1098 444.5 L 1093.5 451 L 1089.5 452 L 1089.5 451 L 1095 449 Q 1097.9 445.8 1097 439 L 1087.5 439 L 1087.5 438 Z " /><path fill="rgb(0,113,121)" stroke="rgb(0,113,121)" stroke-width="1" opacity="0.9803921568627451" d="M 799.5 442 L 800 446.5 L 799 446.5 L 799.5 442 Z " /><path fill="rgb(0,113,121)" stroke="rgb(0,113,121)" stroke-width="1" opacity="0.9803921568627451" d="M 1195 443 L 1202.5 443 L 1204 444.5 Q 1201.8 452.9 1195.5 457 L 1192.5 458 L 1192.5 457 L 1199 452.5 L 1202 444 L 1195.5 445 L 1195 443 Z " /><path fill="rgb(0,113,121)" stroke="rgb(0,113,121)" stroke-width="1" opacity="0.9803921568627451" d="M 772.5 444 Q 773 449.5 777.5 451 L 780 451.5 L 777.5 452 L 774 450 L 772 446.5 L 772.5 444 Z " /><path fill="rgb(0,113,121)" stroke="rgb(0,113,121)" stroke-width="1" opacity="0.9803921568627451" d="M 792.5 444 L 793 445.5 L 788.5 451 L 784.5 452 L 784.5 451 Q 789.3 450.8 791 447.5 L 792.5 444 Z " /><path fill="rgb(0,113,121)" stroke="rgb(0,113,121)" stroke-width="1" opacity="0.9803921568627451" d="M 1168.5 444 L 1170 449.5 L 1169 449.5 L 1168.5 444 Z " /><path fill="rgb(0,113,121)" stroke="rgb(0,113,121)" stroke-width="1" opacity="0.9803921568627451" d="M 1257.5 444 Q 1258 453 1264.5 456 L 1272 458.5 L 1268.5 459 L 1258 450.5 L 1257.5 444 Z " /><path fill="rgb(0,113,121)" stroke="rgb(0,113,121)" stroke-width="1" opacity="0.9803921568627451" d="M 1327.5 444 L 1328 446.5 L 1325 451 L 1320.5 452 L 1320.5 451 L 1322.5 451 L 1327 446.5 L 1327.5 444 Z " /><path fill="rgb(0,113,121)" stroke="rgb(0,113,121)" stroke-width="1" opacity="0.9803921568627451" d="M 765.5 445 L 766 447.5 L 765 447.5 L 765.5 445 Z " /><path fill="rgb(0,113,121)" stroke="rgb(0,113,121)" stroke-width="1" opacity="0.9803921568627451" d="M 1194.5 446 L 1195 447.5 Q 1193 451.5 1187.5 452 L 1187.5 451 Q 1192.3 450.8 1194 447.5 L 1194.5 446 Z " /><path fill="rgb(0,113,121)" stroke="rgb(0,113,121)" stroke-width="1" opacity="0.9803921568627451" d="M 1283.5 446 L 1284 447.5 Q 1282 451.5 1276.5 452 L 1276.5 451 L 1282 448.5 L 1283.5 446 Z " /><path fill="rgb(0,113,121)" stroke="rgb(0,113,121)" stroke-width="1" opacity="0.9803921568627451" d="M 1130.5 447 Q 1133.3 451.2 1140 451.5 L 1136.5 452 L 1130.5 448 L 1126 452.5 L 1128.5 455 L 1140 458.5 L 1135.5 459 Q 1128.5 457.5 1125 452.5 L 1130.5 447 Z " /><path fill="rgb(0,113,121)" stroke="rgb(0,113,121)" stroke-width="1" opacity="0.9803921568627451" d="M 798.5 448 L 799 449.5 L 792.5 457 L 789.5 458 L 789.5 457 L 797 451.5 L 798.5 448 Z " /><path fill="rgb(0,113,121)" stroke="rgb(0,113,121)" stroke-width="1" opacity="0.9803921568627451" d="M 766.5 449 L 772.5 456 L 780 458.5 L 776.5 459 L 766 450.5 L 766.5 449 Z " /><path fill="rgb(0,113,121)" stroke="rgb(0,113,121)" stroke-width="1" opacity="0.9803921568627451" d="M 1071.5 450 L 1075.5 455 L 1085 458.5 L 1081.5 459 L 1072 452.5 L 1071.5 450 Z " /><path fill="rgb(0,113,121)" stroke="rgb(0,113,121)" stroke-width="1" opacity="0.9803921568627451" d="M 1302.5 450 L 1306.5 455 L 1316 458.5 L 1312.5 459 L 1303 452.5 L 1302.5 450 Z " /><path fill="rgb(0,113,121)" stroke="rgb(0,113,121)" stroke-width="1" opacity="0.9803921568627451" d="M 1170.5 451 Q 1174.3 457.3 1183 458.5 L 1179.5 459 Q 1172.7 456.5 1170.5 451 Z " /><path fill="rgb(0,113,121)" stroke="rgb(0,113,121)" stroke-width="1" opacity="0.9803921568627451" d="M 369.5 455 L 373 455.5 L 369.5 456 L 369.5 455 Z " /><path fill="rgb(0,113,121)" stroke="rgb(0,113,121)" stroke-width="1" opacity="0.9803921568627451" d="M 308.5 456 L 312 456.5 L 308.5 457 L 308.5 456 Z " /><path fill="rgb(0,113,121)" stroke="rgb(0,113,121)" stroke-width="1" opacity="0.9803921568627451" d="M 363.5 456 L 368 456.5 L 363.5 457 L 363.5 456 Z " /><path fill="rgb(0,113,121)" stroke="rgb(0,113,121)" stroke-width="1" opacity="0.9803921568627451" d="M 313.5 457 L 319 457.5 L 313.5 458 L 313.5 457 Z " /><path fill="rgb(0,113,121)" stroke="rgb(0,113,121)" stroke-width="1" opacity="0.9803921568627451" d="M 356.5 457 L 362 457.5 L 356.5 458 L 356.5 457 Z " /><path fill="rgb(0,113,121)" stroke="rgb(0,113,121)" stroke-width="1" opacity="0.9803921568627451" d="M 1093.5 457 L 1095 457.5 L 1089.5 459 L 1089.5 458 L 1093.5 457 Z " /><path fill="rgb(0,113,121)" stroke="rgb(0,113,121)" stroke-width="1" opacity="0.9803921568627451" d="M 320.5 458 L 330 458.5 L 320.5 459 L 320.5 458 Z " /><path fill="rgb(0,113,121)" stroke="rgb(0,113,121)" stroke-width="1" opacity="0.9803921568627451" d="M 344.5 458 L 355 458.5 L 344.5 459 L 344.5 458 Z " /><path fill="rgb(0,113,121)" stroke="rgb(0,113,121)" stroke-width="1" opacity="0.9803921568627451" d="M 784.5 458 L 788 458.5 L 784.5 459 L 784.5 458 Z " /><path fill="rgb(0,113,121)" stroke="rgb(0,113,121)" stroke-width="1" opacity="0.9803921568627451" d="M 878.5 458 L 909 458.5 L 878.5 459 L 878.5 458 Z " /><path fill="rgb(0,113,121)" stroke="rgb(0,113,121)" stroke-width="1" opacity="0.9803921568627451" d="M 1188.5 458 L 1191 458.5 L 1188.5 459 L 1188.5 458 Z " /><path fill="rgb(0,113,121)" stroke="rgb(0,113,121)" stroke-width="1" opacity="1" d="M 465.5 52 L 493.5 52 L 494.5 53 L 512.5 55 Q 533.7 60.8 546 75.5 Q 564.9 94.6 563 134.5 L 562 135.5 L 560 154.5 L 555 174.5 L 548 194.5 L 540.5 210 L 540 208.5 L 544 200.5 L 549 182.5 Q 547.8 177.8 550 176.5 L 550 154.5 Q 546.1 133.9 532.5 123 L 519.5 116 L 511.5 114 L 493.5 113 L 492.5 114 L 477.5 115 L 457.5 120 Q 433.9 127.9 413.5 139 Q 371.5 165 339 200.5 Q 323 217.5 310.5 238 L 206 237.5 Q 234.6 193.6 271.5 158 Q 317.5 114 375.5 82 L 420.5 62 L 445.5 55 L 464.5 53 L 465.5 52 Z " /><path fill="rgb(0,113,121)" stroke="rgb(0,113,121)" stroke-width="1" opacity="1" d="M 1020.5 52 L 1049.5 52 L 1050.5 53 L 1063.5 54 L 1084.5 60 Q 1115.3 72.3 1135 95.5 L 1151 118.5 L 1114.5 135 Q 1105.5 121.5 1093.5 111 Q 1081 100 1062.5 95 L 1052.5 93 L 1044.5 93 L 1043.5 92 L 1026.5 92 L 1025.5 93 L 1011.5 94 L 992.5 100 L 978.5 108 L 967 117 L 955 133.5 L 951 141.5 L 946 158.5 L 945 179.5 L 948 196.5 L 955 212.5 Q 962.7 225.9 974.5 235 Q 988.8 246.7 1009.5 252 L 1020.5 254 L 1050.5 254 L 1066.5 251 L 1080.5 246 Q 1095.8 239.3 1106 227.5 L 1114.5 214 L 1150 232.5 Q 1141.3 251.3 1126.5 264 Q 1110.5 278 1088.5 286 L 1066.5 292 L 1053.5 293 L 1052.5 294 L 1036.5 294 L 1034.5 295 L 1033.5 294 L 1016.5 294 L 1015.5 293 L 1003.5 292 Q 987.5 289 974.5 283 Q 949.8 272.2 933 253.5 Q 916.1 235.4 908 208.5 L 904 188.5 L 904 157.5 L 908 137.5 L 917 115.5 Q 927.9 95.9 944.5 82 Q 961.2 68.2 983.5 60 L 1001.5 55 L 1019.5 53 L 1020.5 52 Z " /><path fill="rgb(0,113,121)" stroke="rgb(0,113,121)" stroke-width="1" opacity="1" d="M 677 55 L 867.5 55 L 868 55.5 L 868 95 L 704.5 95 L 704 96.5 L 718 111.5 L 718 150 L 846.5 150 L 847 150.5 L 847 190 L 718 190 L 718 250 L 874.5 250 L 875 250.5 L 875 290 L 677 290 L 677 55 Z " /><path fill="rgb(0,113,121)" stroke="rgb(0,113,121)" stroke-width="1" opacity="1" d="M 1179 55 L 1368.5 55 L 1369 55.5 L 1369 95 L 1205 95.5 L 1219 111.5 L 1219 150 L 1348.5 150 L 1349 150.5 L 1349 190 L 1219 190 L 1219 250 L 1375.5 250 L 1376 250.5 L 1376 290 L 1179 290 L 1179 55 Z " /><path fill="rgb(0,113,121)" stroke="rgb(0,113,121)" stroke-width="1" opacity="1" d="M 506 273 L 611 273.5 Q 582.4 318.4 544.5 354 Q 490.7 404.7 420.5 439 L 403.5 446 L 373.5 455 L 356.5 457 L 355.5 458 L 330.5 459 L 329.5 458 L 319.5 458 L 318.5 457 L 307.5 456 L 292.5 451 Q 280.4 445.1 272 435.5 Q 263 425.5 258 411.5 L 255 398.5 L 255 371.5 L 263 334.5 L 277.5 299 L 278 300.5 L 274 308.5 L 269 325.5 L 268 337.5 L 267 338.5 L 267 352.5 L 269 363.5 L 275 376.5 L 286.5 389 L 295.5 394 L 306.5 397 L 332.5 397 L 355.5 392 L 373.5 386 L 410.5 368 Q 449.8 341.8 481 307.5 Q 496 292.1 506 273 Z " /><path fill="rgb(0,113,121)" stroke="rgb(0,113,121)" stroke-width="1" opacity="1" d="M 678 409 L 707.5 409 L 708 409.5 L 708 415 L 684 415 L 684 430 L 704 430 L 704 437 L 684 437 L 684 452 L 707.5 452 L 708 452.5 L 708 458 L 678 458 L 678 409 Z " /><path fill="rgb(0,113,121)" stroke="rgb(0,113,121)" stroke-width="1" opacity="1" d="M 718 409 Q 723.4 407.5 725 410.5 L 746.5 443 L 748 442.5 L 748 409.5 L 748.5 409 L 754 409 L 754 457.5 Q 753.9 458.6 748.5 458 L 725.5 424 L 724 424.5 L 724 457.5 L 723.5 458 L 718 458 L 718 409 Z " /><path fill="rgb(0,113,121)" stroke="rgb(0,113,121)" stroke-width="1" opacity="1" d="M 777.5 409 L 787.5 409 L 797 416.5 L 799 424 L 793 424 L 793 421.5 L 788.5 416 L 778.5 415 L 773 419.5 L 771 425.5 L 771 442.5 L 774 450 L 777.5 452 L 786.5 452 L 792 447.5 L 794 438 L 783 438 L 783 432 L 800 432 L 800 441.5 L 797 451.5 L 792.5 456 L 788.5 458 L 780.5 459 Q 771.3 457.3 767 450.5 L 765 444.5 L 765 423.5 Q 766.2 415.7 771.5 412 L 777.5 409 Z " /><path fill="rgb(0,113,121)" stroke="rgb(0,113,121)" stroke-width="1" opacity="1" d="M 811 409 L 816.5 409 L 817 409.5 L 817 458 L 811.5 458 L 811 457.5 L 811 409 Z " /><path fill="rgb(0,113,121)" stroke="rgb(0,113,121)" stroke-width="1" opacity="1" d="M 830 409 L 835.5 409 L 836 410.5 L 857 443 L 859 442.5 L 859 409.5 L 859.5 409 L 865 409 L 865 457.5 L 864.5 458 L 859 458 L 838 424 L 836 424.5 L 836 457.5 L 835.5 458 L 830 458 L 830 409 Z " /><path fill="rgb(0,113,121)" stroke="rgb(0,113,121)" stroke-width="1" opacity="1" d="M 878 409 L 908.5 409 L 909 409.5 L 909 415 L 884 415 L 884 430 L 905 430 L 905 437 L 884 437 L 884 452 L 908.5 452 L 909 452.5 L 909 458 L 878 458 L 878 409 Z " /><path fill="rgb(0,113,121)" stroke="rgb(0,113,121)" stroke-width="1" opacity="1" d="M 919 409 L 948.5 409 L 949 409.5 L 949 415 L 925 415 L 925 430 L 946 430 L 946 437 L 925 437 L 925 452 L 948.5 452 L 949 452.5 L 949 458 L 919 458 L 919 409 Z " /><path fill="rgb(0,113,121)" stroke="rgb(0,113,121)" stroke-width="1" opacity="1" d="M 959 409 L 980.5 409 Q 987.9 410.1 991 415.5 L 993 425.5 Q 991.5 432 986.5 435 L 983 436 L 994 457.5 L 986 458 L 977 437 L 966 437 L 966 458 L 959 458 L 959 409 Z M 966 415 L 966 431 L 982 431 L 984 430 L 987 425 L 986 420 L 980 415 L 966 415 Z " /><path fill="rgb(0,113,121)" stroke="rgb(0,113,121)" stroke-width="1" opacity="1" d="M 1004 409 L 1009.5 409 L 1010 409.5 L 1010 458 L 1004.5 458 L 1004 457.5 L 1004 409 Z " /><path fill="rgb(0,113,121)" stroke="rgb(0,113,121)" stroke-width="1" opacity="1" d="M 1023 409 L 1028.5 409 L 1029 410.5 L 1050 443 L 1052 442.5 L 1052 409.5 L 1052.5 409 L 1058 409 L 1058 457.5 L 1057.5 458 L 1052 458 L 1031 424 L 1029 424.5 L 1029 457.5 L 1028.5 458 L 1023 458 L 1023 409 Z " /><path fill="rgb(0,113,121)" stroke="rgb(0,113,121)" stroke-width="1" opacity="1" d="M 1082.5 409 Q 1096.5 407.5 1101 415.5 L 1104 424 Q 1098.6 425.5 1097 422.5 L 1097 420.5 L 1092.5 416 L 1083.5 415 L 1078 418.5 L 1076 422.5 L 1076 444.5 L 1080.5 451 Q 1084 453.5 1091.5 452 L 1096 448.5 Q 1099.2 445 1098 438 L 1087 438 L 1087 432 L 1104 432 L 1104 445.5 Q 1101.9 453.4 1095.5 457 L 1085.5 459 L 1078.5 457 L 1073 452.5 L 1070 446.5 L 1070 420.5 L 1077.5 411 L 1082.5 409 Z " /><path fill="rgb(0,113,121)" stroke="rgb(0,113,121)" stroke-width="1" opacity="1" d="M 1138.5 409 Q 1153.2 406.8 1158 414.5 L 1153.5 418 Q 1150.1 412.9 1139.5 415 L 1134 419.5 L 1133 422.5 L 1137.5 429 L 1150.5 431 L 1159 437.5 L 1160 447.5 L 1155.5 455 Q 1150.2 459.2 1140.5 459 L 1132.5 457 L 1126 452.5 L 1130.5 448 L 1133.5 451 Q 1139 453.5 1148.5 452 L 1153 448.5 L 1154 442.5 L 1150.5 438 L 1137.5 436 L 1130 431.5 Q 1126 428 1128 418.5 L 1133.5 411 L 1138.5 409 Z " /><path fill="rgb(0,113,121)" stroke="rgb(0,113,121)" stroke-width="1" opacity="1" d="M 1180.5 409 L 1190.5 409 L 1200 416.5 L 1202 423 Q 1196.6 424.5 1195 421.5 L 1192.5 417 Q 1189.2 413.8 1181.5 415 L 1176 419.5 Q 1172.3 427.8 1174 441.5 Q 1175.1 448.9 1180.5 452 Q 1192 454 1195 447.5 L 1196.5 444 L 1202 444 L 1202 446.5 L 1195.5 456 Q 1191.2 459.2 1183.5 459 Q 1174.3 457.3 1170 450.5 L 1168 443.5 L 1168 423.5 Q 1169.2 415.7 1174.5 412 L 1180.5 409 Z " /><path fill="rgb(0,113,121)" stroke="rgb(0,113,121)" stroke-width="1" opacity="1" d="M 1212 409 L 1217.5 409 L 1218 409.5 L 1218 430 L 1240 430 L 1240 409.5 L 1240.5 409 L 1246 409 L 1246 457.5 L 1245.5 458 L 1240 458 L 1240 437 L 1218 437 L 1218 457.5 L 1217.5 458 L 1212 458 L 1212 409 Z " /><path fill="rgb(0,113,121)" stroke="rgb(0,113,121)" stroke-width="1" opacity="1" d="M 1269.5 409 Q 1284.5 407.5 1289 416.5 L 1291 420.5 L 1291 446.5 L 1285.5 455 Q 1281.2 459.2 1272.5 459 Q 1263.3 457.3 1259 450.5 L 1257 443.5 L 1257 423.5 Q 1258.2 415.7 1263.5 412 L 1269.5 409 Z M 1271 415 L 1269 416 Q 1264 419 1263 426 L 1263 443 L 1266 450 L 1270 452 Q 1277 454 1281 451 L 1285 445 L 1285 423 L 1283 419 Q 1280 414 1271 415 Z " /><path fill="rgb(0,113,121)" stroke="rgb(0,113,121)" stroke-width="1" opacity="1" d="M 1313.5 409 Q 1327.5 407.5 1332 415.5 L 1335 423.5 L 1335 443.5 L 1333 450.5 L 1327.5 456 Q 1323.5 459 1316.5 459 Q 1308.2 457.8 1304 452.5 L 1301 446.5 L 1301 421.5 Q 1302.8 414.3 1308.5 411 L 1313.5 409 Z M 1315 415 L 1311 417 L 1307 423 L 1307 445 L 1308 448 L 1314 452 Q 1322 453 1325 451 L 1328 447 L 1329 442 Q 1331 427 1327 420 Q 1325 413 1315 415 Z " /><path fill="rgb(0,113,121)" stroke="rgb(0,113,121)" stroke-width="1" opacity="1" d="M 1346 409 L 1351.5 409 L 1352 409.5 L 1352 452 L 1375.5 452 L 1376 452.5 L 1376 458 L 1346 458 L 1346 409 Z " /></svg>